<svg xmlns="http://www.w3.org/2000/svg" xmlns:xlink="http://www.w3.org/1999/xlink" width="94" height="94" viewBox="0 0 94 94">
    <defs>
        <filter id="a" width="115.2%" height="115.2%" x="-7.6%" y="-5.4%" filterUnits="objectBoundingBox">
            <feOffset dy="2" in="SourceAlpha" result="shadowOffsetOuter1"/>
            <feGaussianBlur in="shadowOffsetOuter1" result="shadowBlurOuter1" stdDeviation="2"/>
            <feColorMatrix in="shadowBlurOuter1" result="shadowMatrixOuter1" values="0 0 0 0 0 0 0 0 0 0 0 0 0 0 0 0 0 0 0.24 0"/>
            <feMerge>
                <feMergeNode in="shadowMatrixOuter1"/>
                <feMergeNode in="SourceGraphic"/>
            </feMerge>
        </filter>
        <circle id="b" cx="46" cy="46" r="42.167"/>
        <filter id="c" width="100.3%" height="100.3%" x="-.1%" y="-.1%" filterUnits="objectBoundingBox">
            <feOffset dy="-.25" in="SourceAlpha" result="shadowOffsetInner1"/>
            <feComposite in="shadowOffsetInner1" in2="SourceAlpha" k2="-1" k3="1" operator="arithmetic" result="shadowInnerInner1"/>
            <feColorMatrix in="shadowInnerInner1" result="shadowMatrixInner1" values="0 0 0 0 0.129411765 0 0 0 0 0.129411765 0 0 0 0 0.129411765 0 0 0 0.1 0"/>
            <feOffset dy=".25" in="SourceAlpha" result="shadowOffsetInner2"/>
            <feComposite in="shadowOffsetInner2" in2="SourceAlpha" k2="-1" k3="1" operator="arithmetic" result="shadowInnerInner2"/>
            <feColorMatrix in="shadowInnerInner2" result="shadowMatrixInner2" values="0 0 0 0 1 0 0 0 0 1 0 0 0 0 1 0 0 0 0.4 0"/>
            <feMerge>
                <feMergeNode in="shadowMatrixInner1"/>
                <feMergeNode in="shadowMatrixInner2"/>
            </feMerge>
        </filter>
        <radialGradient id="e" cx="3.402%" cy="0%" r="115.722%" fx="3.402%" fy="0%" gradientTransform="matrix(.6865 .68702 -.64908 .72663 .01 -.023)">
            <stop offset="0%" stop-color="#212121" stop-opacity=".2"/>
            <stop offset="100%" stop-color="#263238" stop-opacity="0"/>
        </radialGradient>
        <filter id="f" width="111.8%" height="111.8%" x="-5%" y="-2.5%" filterUnits="objectBoundingBox">
            <feOffset dy="1" in="SourceAlpha" result="shadowOffsetOuter1"/>
            <feGaussianBlur in="shadowOffsetOuter1" result="shadowBlurOuter1" stdDeviation=".5"/>
            <feColorMatrix in="shadowBlurOuter1" result="shadowMatrixOuter1" values="0 0 0 0 0 0 0 0 0 0 0 0 0 0 0 0 0 0 0.24 0"/>
            <feMerge>
                <feMergeNode in="shadowMatrixOuter1"/>
                <feMergeNode in="SourceGraphic"/>
            </feMerge>
        </filter>
    </defs>
    <g fill="none" fill-rule="evenodd" filter="url(#a)" transform="translate(1 -1)">
        <path d="M0 0h92v92H0z"/>
        <mask id="d" fill="#fff">
            <use xlink:href="#b"/>
        </mask>
        <use fill="#42A5F5" xlink:href="#b"/>
        <use fill="#000" filter="url(#c)" xlink:href="#b"/>
        <path fill="#00897B" d="M70.76 34.073c1.51 2.64 3.28 5.816 4.436 7.041a370.63 370.63 0 0 0 4.871 5.017c4.06-1.005 1.626 6.731 1.626 6.731-.678 2.58-3.384 10.891-3.384 10.891-.136 1.862-2.03 9.029-2.03 9.029C73.035 83.096 62.752 86.25 62.752 86.25c.134-1.147-.946-4.872-.946-4.872-1.627-4.299-.407-9.888-.407-9.888.135-1.672-1.624-4.44-1.624-4.44-1.08-1.289-1.489-7.309-1.489-7.309-1.49-4.87-13.257-.715-13.257-.715-11.23-1.862-8.254-15.478-8.254-15.478.138-6.876 10.825-13.754 10.825-13.754 6.09-2.579 8.253.43 8.253.43 2.51 1.439 8.493.567 11.081.097l-1.322-1.295s2.486-2.335 1.658-3.644c-.828-1.315-2.624.436-4.144.436s-3.593 1.313-4.421.146c-.83-1.168-1.383-.875-2.211-.146-.83.73-2.35 1.897-2.486 1.165-.14-.727-2.626-.435-2.764-1.165-.137-.729.411-2.772-.832-2.334-1.24.436-3.038 1.898-3.316 2.626-.274.73-1.24 2.916-2.208 2.916-.969 0-3.455.584-3.867-.29-.416-.877-1.244-3.794-.416-4.669.828-.875 4.883.048 4.696-1.021-.187-1.069-.664-3.416-.055-3.75.61-.334 2.266-4.125 3.372-4.563 1.105-.438 4.008 1.166 4.424.146 0 0 .138-3.062-.416-3.501-.554-.437-.972-1.75-1.932-1.605-.971.148-1.387 1.168-.694 1.605.694.44 1.244 2.187.83 2.187-.418 0-4.148.292-4.284-.727-.14-1.02.415-3.501 1.653-4.377 1.25-.873 3.873-.731 4.702-.293.83.439 1.797-.438 2.074-1.164.275-.73-3.927-3.17-5.173-3.17 0 0 32.744 2.606 38.366 38.333 0 0-3.488-12.267-5.837-12.994 0 0-1.244.875-2.074.728-.828-.147-4.974-2.918-5.248-2.186-.278.73 1.933 3.206 4.284 3.498 2.345.292 2.485.583 2.622 1.896.138 1.311.552 3.355.279 4.666-.276 1.314-1.935 5.254-4.974 2.628l-6.458-6.33zM44.28 13.417S46 14.649 46 15.607c0 .958-1.809 1.646-2.487 1.643-.678-.004-1.346-.412-1.346-.412s0-.82.528-1.78c.53-.955 1.585-1.641 1.585-1.641zm-2.113-7.45s-3.24 4.082-4.858 4.504c-1.622.424-4.322 1.83-4.996 2.394-.675.562-2.97-.423-1.62-1.548 1.351-1.127 4.994-3.662 4.185-3.942-.81-.28-4.456 2.392-5.94 3.519-1.486 1.125-2.703 2.811-3.373 3.94-.68 1.126-.542 4.083-2.027 4.646-1.487.563-7.967 3.375-10.125 5.348-2.16 1.97-4.486 3.424-5.435 5.395-.944 1.97.48-3.145 1.314-5.034 0 0 5.74-10.777 18.836-17.534 0 0 9.988-2.671 14.039-1.688zM4.395 56.847s-1.349-7.69.134-8.403c1.482-.712 1.928-.863 3.233.57 1.3 1.431 3.095 3.844 3.766 5.125.678 1.282 3.101 2.847 3.101 3.844 0 .998-.54 3.418 0 4.557.537 1.14 1.344 1.284 2.56 1.852 1.211.567 3.498 1.424 4.845 2.707 1.344 1.282 3.232 2.847 2.827 4.554-.405 1.712-1.212 4.274-.942 5.27.267.998 1.212 2.705.136 3.417-1.079.712-1.886.571-1.752 1.85.136 1.281 1.485 5.265 1.889 5.977.001 0-16.79-7.64-19.797-31.32zm.965-15.994L3.833 46c.477-4.962.434-4.878 1.625-11.5.612 0 .104 5.297-.098 6.353z" mask="url(#d)"/>
        <path fill="url(#e)" d="M32.738 53.549s-6.78-9.92-4.823-13.23c.826-1.4 3.018-7.69 7.05-10.083 4.03-2.393 16.966.558 16.966.558l33.436 30.104s-3.456 8.207-8.55 13.632c-5.092 5.426-12.495 9.383-12.495 9.383L32.738 53.55z" mask="url(#d)"/>
        <g fill="#F5F5F5" filter="url(#f)" transform="translate(26.833 26.833)">
            <path d="M28.766 25.314h-1.83l-.632-.632a14.817 14.817 0 0 0 3.613-9.723C29.917 6.697 23.22 0 14.96 0 6.697 0 0 6.697 0 14.959c0 8.261 6.697 14.958 14.959 14.958 3.716 0 7.11-1.358 9.723-3.601l.632.632v1.818L36.821 40.25l3.429-3.429-11.484-11.507zm-13.807 0c-5.72 0-10.356-4.637-10.356-10.355 0-5.72 4.637-10.356 10.356-10.356 5.718 0 10.355 4.637 10.355 10.356 0 5.718-4.637 10.355-10.355 10.355z"/>
        </g>
    </g>
</svg>
