<svg xmlns="http://www.w3.org/2000/svg" xmlns:xlink="http://www.w3.org/1999/xlink" width="82" height="82" viewBox="0 0 82 82">
    <defs>
        <filter id="a" width="115.2%" height="115.2%" x="-7.6%" y="-5.4%" filterUnits="objectBoundingBox">
            <feOffset dy="2" in="SourceAlpha" result="shadowOffsetOuter1"/>
            <feGaussianBlur in="shadowOffsetOuter1" result="shadowBlurOuter1" stdDeviation="2"/>
            <feColorMatrix in="shadowBlurOuter1" result="shadowMatrixOuter1" values="0 0 0 0 0 0 0 0 0 0 0 0 0 0 0 0 0 0 0.24 0"/>
            <feMerge>
                <feMergeNode in="shadowMatrixOuter1"/>
                <feMergeNode in="SourceGraphic"/>
            </feMerge>
        </filter>
        <path id="b" d="M46 82.417c20.112 0 36.417-16.305 36.417-36.417V15.167s-.358-2.478-1.807-3.88c-1.449-1.4-3.964-1.704-3.964-1.704H46C25.888 9.583 9.583 25.888 9.583 46c0 20.112 16.305 36.417 36.417 36.417z"/>
        <filter id="c" width="100.3%" height="100.3%" x="-.2%" y="-.2%" filterUnits="objectBoundingBox">
            <feOffset dx="-.25" dy="-.25" in="SourceAlpha" result="shadowOffsetInner1"/>
            <feComposite in="shadowOffsetInner1" in2="SourceAlpha" k2="-1" k3="1" operator="arithmetic" result="shadowInnerInner1"/>
            <feColorMatrix in="shadowInnerInner1" result="shadowMatrixInner1" values="0 0 0 0 0.749019608 0 0 0 0 0.211764706 0 0 0 0 0.0470588235 0 0 0 0.2 0"/>
            <feOffset dx=".25" dy=".25" in="SourceAlpha" result="shadowOffsetInner2"/>
            <feComposite in="shadowOffsetInner2" in2="SourceAlpha" k2="-1" k3="1" operator="arithmetic" result="shadowInnerInner2"/>
            <feColorMatrix in="shadowInnerInner2" result="shadowMatrixInner2" values="0 0 0 0 1 0 0 0 0 1 0 0 0 0 1 0 0 0 0.2 0"/>
            <feMerge>
                <feMergeNode in="shadowMatrixInner1"/>
                <feMergeNode in="shadowMatrixInner2"/>
            </feMerge>
        </filter>
        <circle id="e" cx="46" cy="46" r="25.875"/>
        <filter id="d" width="107.7%" height="107.7%" x="-3.9%" y="-1.9%" filterUnits="objectBoundingBox">
            <feOffset dy="1" in="SourceAlpha" result="shadowOffsetOuter1"/>
            <feGaussianBlur in="shadowOffsetOuter1" result="shadowBlurOuter1" stdDeviation=".5"/>
            <feColorMatrix in="shadowBlurOuter1" values="0 0 0 0 0.749019608 0 0 0 0 0.211764706 0 0 0 0 0.0470588235 0 0 0 0.2 0"/>
        </filter>
        <filter id="f" width="104.3%" height="104.3%" x="-2.2%" y="-.2%" filterUnits="objectBoundingBox">
            <feOffset dy="-.25" in="SourceAlpha" result="shadowOffsetInner1"/>
            <feComposite in="shadowOffsetInner1" in2="SourceAlpha" k2="-1" k3="1" operator="arithmetic" result="shadowInnerInner1"/>
            <feColorMatrix in="shadowInnerInner1" result="shadowMatrixInner1" values="0 0 0 0 0.129411765 0 0 0 0 0.129411765 0 0 0 0 0.129411765 0 0 0 0.1 0"/>
            <feOffset dy=".25" in="SourceAlpha" result="shadowOffsetInner2"/>
            <feComposite in="shadowOffsetInner2" in2="SourceAlpha" k2="-1" k3="1" operator="arithmetic" result="shadowInnerInner2"/>
            <feColorMatrix in="shadowInnerInner2" result="shadowMatrixInner2" values="0 0 0 0 1 0 0 0 0 1 0 0 0 0 1 0 0 0 0.4 0"/>
            <feMerge>
                <feMergeNode in="shadowMatrixInner1"/>
                <feMergeNode in="shadowMatrixInner2"/>
            </feMerge>
        </filter>
        <path id="h" d="M46 48.977a9.247 9.247 0 1 1 0-18.493 9.247 9.247 0 0 1 0 18.493zm0-1.54a7.706 7.706 0 1 0 0-15.412 7.706 7.706 0 0 0 0 15.411zm1.541-7.321c.899 0 2.697.45 2.697 1.349v.963h-2.312v-.963c0-.572-.31-1.006-.757-1.328.134-.014.26-.021.372-.021zm-3.082 0c.899 0 2.697.45 2.697 1.349v.963h-5.394v-.963c0-.899 1.798-1.349 2.697-1.349zm0-.77a1.156 1.156 0 0 1 0-2.312c.638 0 1.152.518 1.152 1.156 0 .638-.514 1.155-1.152 1.155zm3.082 0a1.156 1.156 0 0 1 0-2.312c.639 0 1.152.518 1.152 1.156 0 .638-.513 1.155-1.152 1.155z"/>
        <filter id="g" width="186.5%" height="186.5%" x="-43.3%" y="-21.6%" filterUnits="objectBoundingBox">
            <feOffset dy="4" in="SourceAlpha" result="shadowOffsetOuter1"/>
            <feGaussianBlur in="shadowOffsetOuter1" result="shadowBlurOuter1" stdDeviation="2"/>
            <feColorMatrix in="shadowBlurOuter1" values="0 0 0 0 0.129411765 0 0 0 0 0.129411765 0 0 0 0 0.129411765 0 0 0 0.1 0"/>
        </filter>
        <path id="j" d="M38.955 61.306a9.247 9.247 0 1 1 0-18.493 9.247 9.247 0 0 1 0 18.493zm0-1.54a7.706 7.706 0 1 0 0-15.412 7.706 7.706 0 0 0 0 15.411zm1.541-7.321c.899 0 2.697.45 2.697 1.348v.964h-2.312v-.964c0-.571-.31-1.005-.757-1.327.134-.014.26-.021.372-.021zm-3.082 0c.899 0 2.697.45 2.697 1.348v.964h-5.394v-.964c0-.898 1.798-1.348 2.697-1.348zm0-.77a1.156 1.156 0 0 1 0-2.312c.638 0 1.152.517 1.152 1.155s-.514 1.156-1.152 1.156zm3.082 0a1.156 1.156 0 0 1 0-2.312c.638 0 1.152.517 1.152 1.155s-.514 1.156-1.152 1.156z"/>
        <filter id="i" width="186.5%" height="186.5%" x="-43.3%" y="-21.6%" filterUnits="objectBoundingBox">
            <feOffset dy="4" in="SourceAlpha" result="shadowOffsetOuter1"/>
            <feGaussianBlur in="shadowOffsetOuter1" result="shadowBlurOuter1" stdDeviation="2"/>
            <feColorMatrix in="shadowBlurOuter1" values="0 0 0 0 0.129411765 0 0 0 0 0.129411765 0 0 0 0 0.129411765 0 0 0 0.1 0"/>
        </filter>
        <path id="l" d="M53.045 61.306a9.247 9.247 0 1 1 0-18.493 9.247 9.247 0 0 1 0 18.493zm0-1.54a7.706 7.706 0 1 0 0-15.412 7.706 7.706 0 0 0 0 15.411zm1.541-7.321c.899 0 2.697.45 2.697 1.348v.964h-2.312v-.964c0-.571-.31-1.005-.757-1.327.134-.014.26-.021.372-.021zm-3.082 0c.899 0 2.697.45 2.697 1.348v.964h-5.394v-.964c0-.898 1.798-1.348 2.697-1.348zm0-.77a1.156 1.156 0 0 1 0-2.312c.638 0 1.152.517 1.152 1.155s-.514 1.156-1.152 1.156zm3.082 0a1.156 1.156 0 0 1 0-2.312c.639 0 1.152.517 1.152 1.155s-.513 1.156-1.152 1.156z"/>
        <filter id="k" width="186.5%" height="186.5%" x="-43.3%" y="-21.6%" filterUnits="objectBoundingBox">
            <feOffset dy="4" in="SourceAlpha" result="shadowOffsetOuter1"/>
            <feGaussianBlur in="shadowOffsetOuter1" result="shadowBlurOuter1" stdDeviation="2"/>
            <feColorMatrix in="shadowBlurOuter1" values="0 0 0 0 0.129411765 0 0 0 0 0.129411765 0 0 0 0 0.129411765 0 0 0 0.1 0"/>
        </filter>
    </defs>
    <g fill="none" fill-rule="evenodd" filter="url(#a)" transform="translate(-5 -7)">
        <path d="M0 0h92v92H0z"/>
        <use fill="#FFC107" xlink:href="#b"/>
        <use fill="#000" filter="url(#c)" xlink:href="#b"/>
        <use fill="#000" filter="url(#d)" xlink:href="#e"/>
        <use fill="#FAFAFA" xlink:href="#e"/>
        <use fill="#000" filter="url(#f)" xlink:href="#e"/>
        <g>
            <use fill="#000" filter="url(#g)" xlink:href="#h"/>
            <use fill="#F44336" xlink:href="#h"/>
        </g>
        <g>
            <use fill="#000" filter="url(#i)" xlink:href="#j"/>
            <use fill="#2196F3" xlink:href="#j"/>
        </g>
        <g>
            <use fill="#000" filter="url(#k)" xlink:href="#l"/>
            <use fill="#FFC107" xlink:href="#l"/>
        </g>
    </g>
</svg>
