<svg xmlns="http://www.w3.org/2000/svg" width="20" height="20" viewBox="0 0 20 20">
    <g fill="none" fill-rule="evenodd">
        <path d="M-2-2h24v24H-2z"/>
        <path fill="#DD4B39" d="M18 0a2 2 0 0 1 2 2v16c0 1.104-.896 2-2 2H2c-1.104 0-2-.896-2-2L.01 2C.01.895.896 0 2 0h16zm0 10.002h-2v-2h-1v2h-2v1h2v2h1v-2h2v-1zM7 9.288v1.714h2.858C9.715 11.716 9 13.145 7 13.145c-1.715 0-3.072-1.429-3.072-3.143 0-1.714 1.357-3.143 3.072-3.143 1 0 1.643.429 2 .786l1.357-1.286C9.5 5.502 8.358 5.002 7 5.002a4.97 4.97 0 0 0-5 5c0 2.786 2.214 5 5 5 2.857 0 4.785-2 4.785-4.857 0-.357 0-.572-.071-.857H7z"/>
    </g>
</svg>
