<svg xmlns="http://www.w3.org/2000/svg" xmlns:xlink="http://www.w3.org/1999/xlink" width="249" height="38" viewBox="0 0 249 38">
    <defs>
        <filter id="a" width="115.9%" height="120.6%" x="-8%" y="-7.4%" filterUnits="objectBoundingBox">
            <feOffset dy="1" in="SourceAlpha" result="shadowOffsetOuter1"/>
            <feGaussianBlur in="shadowOffsetOuter1" result="shadowBlurOuter1" stdDeviation="1"/>
            <feColorMatrix in="shadowBlurOuter1" result="shadowMatrixOuter1" values="0 0 0 0 0 0 0 0 0 0 0 0 0 0 0 0 0 0 0.2 0"/>
            <feMerge>
                <feMergeNode in="shadowMatrixOuter1"/>
                <feMergeNode in="SourceGraphic"/>
            </feMerge>
        </filter>
        <path id="b" d="M10.78.339L.14 11.134a.488.488 0 0 0 0 .687l13.12 13.315 8.134 8.294a.473.473 0 0 0 .677 0l1.816-1.844a.488.488 0 0 0 0-.687l-7.292-7.451a.328.328 0 0 1 .034-.427.32.32 0 0 1 .422-.023l7.293 7.452a.475.475 0 0 0 .677 0l1.815-1.844a.488.488 0 0 0 0-.687l-7.292-7.45a.329.329 0 0 1-.001-.462.32.32 0 0 1 .455 0l7.293 7.45a.474.474 0 0 0 .677 0l1.816-1.843a.49.49 0 0 0 0-.687l-7.296-7.454a.327.327 0 0 1 0-.46.32.32 0 0 1 .455-.002l7.292 7.451a.476.476 0 0 0 .677 0l1.816-1.843a.49.49 0 0 0 .003-.695l-7.832-7.986-.442-.408-4.658 4.717a.948.948 0 0 1-1.353 0l-1.581-1.603a.982.982 0 0 1 0-1.374l4.655-4.717L11.456.34a.474.474 0 0 0-.677 0"/>
        <filter id="c" width="100.8%" height="100.7%" x="-.4%" y="-.4%" filterUnits="objectBoundingBox">
            <feOffset dy="-.25" in="SourceAlpha" result="shadowOffsetInner1"/>
            <feComposite in="shadowOffsetInner1" in2="SourceAlpha" k2="-1" k3="1" operator="arithmetic" result="shadowInnerInner1"/>
            <feColorMatrix in="shadowInnerInner1" result="shadowMatrixInner1" values="0 0 0 0 0.129411765 0 0 0 0 0.129411765 0 0 0 0 0.129411765 0 0 0 0.1 0"/>
            <feOffset dy=".25" in="SourceAlpha" result="shadowOffsetInner2"/>
            <feComposite in="shadowOffsetInner2" in2="SourceAlpha" k2="-1" k3="1" operator="arithmetic" result="shadowInnerInner2"/>
            <feColorMatrix in="shadowInnerInner2" result="shadowMatrixInner2" values="0 0 0 0 1 0 0 0 0 1 0 0 0 0 1 0 0 0 0.4 0"/>
            <feMerge>
                <feMergeNode in="shadowMatrixInner1"/>
                <feMergeNode in="shadowMatrixInner2"/>
            </feMerge>
        </filter>
        <path id="d" d="M32.781 0a.475.475 0 0 0-.338.142l-6.32 6.414-8.887 9.021a.487.487 0 0 0 0 .687l1.58 1.604a.474.474 0 0 0 .677 0l4.676-4.763a.477.477 0 0 1 .677 0l8.37 8.562a.474.474 0 0 0 .677 0l9.85-9.999a.486.486 0 0 0 .007-.697L33.12.142A.474.474 0 0 0 32.78 0z"/>
        <filter id="e" width="100.9%" height="101.1%" x="-.5%" y="-.6%" filterUnits="objectBoundingBox">
            <feOffset dy="-.25" in="SourceAlpha" result="shadowOffsetInner1"/>
            <feComposite in="shadowOffsetInner1" in2="SourceAlpha" k2="-1" k3="1" operator="arithmetic" result="shadowInnerInner1"/>
            <feColorMatrix in="shadowInnerInner1" result="shadowMatrixInner1" values="0 0 0 0 0.129411765 0 0 0 0 0.129411765 0 0 0 0 0.129411765 0 0 0 0.1 0"/>
            <feOffset dy=".25" in="SourceAlpha" result="shadowOffsetInner2"/>
            <feComposite in="shadowOffsetInner2" in2="SourceAlpha" k2="-1" k3="1" operator="arithmetic" result="shadowInnerInner2"/>
            <feColorMatrix in="shadowInnerInner2" result="shadowMatrixInner2" values="0 0 0 0 1 0 0 0 0 1 0 0 0 0 1 0 0 0 0.4 0"/>
            <feMerge>
                <feMergeNode in="shadowMatrixInner1"/>
                <feMergeNode in="shadowMatrixInner2"/>
            </feMerge>
        </filter>
    </defs>
    <g fill="none" fill-rule="evenodd">
        <g filter="url(#a)" transform="translate(2 1)">
            <use fill="#00A9DD" xlink:href="#b"/>
            <use fill="#000" filter="url(#c)" xlink:href="#b"/>
            <g>
                <use fill="#F5A623" xlink:href="#d"/>
                <use fill="#000" filter="url(#e)" xlink:href="#d"/>
            </g>
        </g>
        <path fill="#F90" d="M186.259 8.757c0 1.095-.903 1.983-2.018 1.983-1.114 0-2.018-.888-2.018-1.983 0-1.096.904-1.983 2.018-1.983 1.115 0 2.018.887 2.018 1.983"/>
        <path fill="#848484" d="M185.805 12.194h-3.582v16.97h4.036v-16.97zM56.373 28.548a11.203 11.203 0 0 1-.19-1.967c0-1.082.195-2.092.587-3.03.392-.936.895-1.743 1.51-2.42a15.99 15.99 0 0 1 2.05-1.89 38.7 38.7 0 0 1 2.256-1.623c.752-.5 1.435-.99 2.049-1.468a7.414 7.414 0 0 0 1.51-1.546c.392-.552.588-1.12.588-1.702 0-.937-.329-1.686-.986-2.248-.657-.562-1.472-.844-2.446-.844-.827 0-1.6.25-2.32.75a5.95 5.95 0 0 0-1.748 1.874l-3.05-2A9.034 9.034 0 0 1 59.17 7.25C60.44 6.417 61.935 6 63.65 6c2.055 0 3.792.588 5.212 1.764 1.419 1.177 2.129 2.775 2.129 4.794 0 .958-.186 1.859-.556 2.701a7.208 7.208 0 0 1-1.446 2.172 16.78 16.78 0 0 1-1.986 1.717 36.823 36.823 0 0 1-2.177 1.499 38.75 38.75 0 0 0-2.002 1.359 7.111 7.111 0 0 0-1.51 1.452c-.392.52-.598 1.061-.62 1.624H71.34v3.466H56.373zM73.513 26.324l2.13-3.03c1.376 1.48 2.975 2.218 4.798 2.218 1.143 0 2.134-.348 2.97-1.046.838-.697 1.256-1.609 1.256-2.733 0-1.145-.424-2.07-1.272-2.78-.846-.708-1.927-1.061-3.24-1.061-1.25 0-2.416.312-3.496.936l-2.288-.811 1.048-11.243h11.885v3.466h-8.326l-.349 3.654-.159 1.03h.064c.635-.332 1.44-.5 2.415-.5 2.415 0 4.343.7 5.783 2.093 1.44 1.396 2.161 3.124 2.161 5.184 0 2.188-.773 4.004-2.319 5.45-1.547 1.448-3.486 2.17-5.816 2.17-1.377 0-2.7-.26-3.972-.78a9.334 9.334 0 0 1-3.273-2.217M120.398 24.65c-.08.065-.162.126-.244.185a5.378 5.378 0 0 1-2.623.752 5.442 5.442 0 0 1-2.313-.588 3.753 3.753 0 0 1-.486-.342c-.768-.641-1.152-1.48-1.152-2.518 0-1.019.379-1.844 1.137-2.476.08-.066.161-.127.244-.186a5.384 5.384 0 0 1 2.623-.753 5.442 5.442 0 0 1 2.312.589c.17.102.334.214.488.342.767.64 1.151 1.48 1.151 2.518 0 1.018-.38 1.844-1.137 2.476m-4.865-14.79c.057-.047.115-.09.174-.132a3.841 3.841 0 0 1 1.87-.536 3.873 3.873 0 0 1 1.647.42c.121.072.238.151.347.243.547.457.82 1.055.82 1.794 0 .725-.27 1.314-.81 1.764-.056.047-.115.09-.173.133a3.838 3.838 0 0 1-1.869.536 3.87 3.87 0 0 1-1.648-.42 2.9 2.9 0 0 1-.347-.243c-.547-.458-.821-1.055-.821-1.795 0-.725.27-1.313.81-1.763m9.832 12.285c0-.238-.011-.471-.033-.7-.015-.16-.041-.315-.066-.472-.01-.057-.013-.117-.024-.174-.254-1.383-.908-2.573-1.965-3.57a7.056 7.056 0 0 0-1.64-1.156.176.176 0 0 1 .04-.022c.02-.008.039-.013.058-.02l.004-.029a5.85 5.85 0 0 0 .44-.375c.86-.803 1.393-1.764 1.601-2.878.032-.166.056-.335.073-.508 0-.01.002-.017.003-.026a6.232 6.232 0 0 0 0-1.155c-.012-.13-.033-.256-.053-.383-.008-.046-.01-.094-.02-.14-.206-1.12-.735-2.086-1.591-2.892-2.168-2.043-6.381-2.181-8.753-.424l-.06.02-.003.028a6.207 6.207 0 0 0-.441.375c-.859.804-1.392 1.764-1.601 2.878a5.572 5.572 0 0 0-.072.509c0 .009-.003.017-.004.026a6.257 6.257 0 0 0 0 1.155c.012.13.033.256.054.382.007.047.01.095.02.141.205 1.121.735 2.085 1.592 2.892.177.168.364.317.557.458a7.754 7.754 0 0 0-1.008.622c-.024.008-.049.015-.072.024l-.004.035a7.394 7.394 0 0 0-.546.463c-1.059.993-1.717 2.177-1.974 3.553-.04.204-.069.414-.09.627l-.004.032a7.76 7.76 0 0 0 0 1.425c.014.161.04.316.065.473.01.057.014.117.025.174.254 1.383.908 2.573 1.964 3.57 2.688 2.532 7.852 2.718 10.804.522.024-.009.05-.016.074-.024l.003-.036c.187-.144.37-.298.545-.463 1.06-.991 1.717-2.177 1.976-3.552.039-.205.067-.414.089-.627 0-.011.003-.021.004-.032.022-.23.033-.464.033-.726M137.291 21.077c0 1.334.355 2.484 1.065 3.452s1.7 1.451 2.97 1.451c1.166 0 2.136-.44 2.909-1.327.772-.884 1.16-2.087 1.16-3.607 0-1.498-.371-2.706-1.112-3.623-.742-.916-1.707-1.374-2.892-1.374-1.165 0-2.14.422-2.924 1.265-.783.844-1.176 2.098-1.176 3.763zm-3.909 7.87V6.775h4.037v6.901l-.095 1.344h.063c.465-.708 1.149-1.28 2.05-1.718a6.427 6.427 0 0 1 2.843-.656c2.182 0 3.925.771 5.228 2.312 1.303 1.54 1.954 3.55 1.954 6.027 0 2.498-.694 4.513-2.081 6.043-1.388 1.53-3.173 2.295-5.355 2.295a6.256 6.256 0 0 1-2.796-.655c-.89-.438-1.589-1.041-2.098-1.812h-.063c.042.292.063.646.063 1.062v1.03h-3.75zM151.5 23.211V12.968h4.036V22.4c0 1.061.186 1.869.557 2.42.37.552 1.022.827 1.954.827 1.398 0 2.505-.52 3.321-1.561.816-1.041 1.224-2.311 1.224-3.81v-7.308h4.004v15.927h-3.878v-1.874l.096-1.093h-.063c-.425.896-1.144 1.677-2.162 2.342-1.017.667-2.172 1-3.464 1-3.75 0-5.624-2.02-5.624-6.059M190.1 28.497V12.569h3.877v1.874l-.063 1.124h.063c.423-.853 1.123-1.628 2.097-2.327.975-.697 2.193-1.046 3.655-1.046 3.77 0 5.657 2.02 5.657 6.06v10.243h-4.036v-9.432c0-1.062-.186-1.868-.556-2.42-.371-.552-1.033-.827-1.986-.827-1.4 0-2.526.499-3.385 1.498-.858 1-1.287 2.239-1.287 3.717v7.464h-4.035zM211.69 18.565h7.15c-.022-1.04-.334-1.863-.938-2.468-.603-.603-1.371-.904-2.303-.904-1.017 0-1.875.306-2.575.92-.698.615-1.143 1.433-1.334 2.452m-4.259 1.967c0-2.456.768-4.46 2.305-6.011 1.536-1.55 3.522-2.327 5.958-2.327 2.245 0 4.004.713 5.275 2.14 1.271 1.425 1.906 3.232 1.906 5.418 0 .354-.041.864-.126 1.53h-11.154c.127 1.333.646 2.369 1.556 3.107.912.74 2.013 1.11 3.306 1.11 1.61 0 3.156-.583 4.639-1.75l1.59 2.842c-.806.708-1.797 1.265-2.972 1.67-1.176.407-2.358.61-3.543.61-2.606 0-4.714-.806-6.324-2.42-1.61-1.613-2.416-3.587-2.416-5.919"/>
        <path fill="#767676" d="M131.116 26.564c0 1.096-.904 1.984-2.018 1.984-1.114 0-2.018-.888-2.018-1.984 0-1.095.904-1.983 2.018-1.983 1.114 0 2.018.888 2.018 1.983"/>
        <path fill="#00A9DD" d="M95.667 26.564c0 1.096-.903 1.984-2.018 1.984-1.114 0-2.018-.888-2.018-1.984 0-1.095.904-1.983 2.018-1.983 1.115 0 2.018.888 2.018 1.983"/>
        <path fill="#848484" d="M101.26 12.645c-1.293 0-2.442.324-3.448.968-1.006.646-1.732 1.396-2.176 2.249h-.064l.095-1.343V6.774h-4.036V24.124h4.036v-2.578c0-1.54.43-2.805 1.287-3.795.858-.988 1.986-1.483 3.384-1.483.954 0 1.615.277 1.986.828.371.552.557 1.358.557 2.42v9.432h4.036V18.704c0-4.04-1.886-6.06-5.657-6.06M235.199 15.326l-3.071 1.606c-.486-.974-1.085-1.46-1.8-1.46-.342 0-.634.111-.876.333a1.102 1.102 0 0 0-.364.852c0 .605.716 1.206 2.148 1.801 1.97.834 3.297 1.602 3.98 2.305.682.704 1.024 1.65 1.024 2.84 0 1.526-.573 2.803-1.718 3.83-1.112.974-2.455 1.461-4.03 1.461-2.697 0-4.607-1.292-5.73-3.879l3.17-1.444c.441.757.777 1.239 1.008 1.444.452.412.991.617 1.618.617 1.256 0 1.883-.563 1.883-1.688 0-.65-.484-1.255-1.453-1.818a52.72 52.72 0 0 0-1.123-.535 85.922 85.922 0 0 1-1.14-.536c-1.079-.52-1.838-1.038-2.279-1.558-.56-.66-.842-1.51-.842-2.548 0-1.375.48-2.51 1.437-3.408.98-.898 2.169-1.347 3.567-1.347 2.058 0 3.59 1.044 4.591 3.132M179.268 15.326l-3.071 1.606c-.485-.974-1.085-1.46-1.8-1.46-.342 0-.633.111-.875.333a1.102 1.102 0 0 0-.364.852c0 .605.715 1.206 2.147 1.801 1.97.834 3.297 1.602 3.98 2.305.683.704 1.024 1.65 1.024 2.84 0 1.526-.573 2.803-1.717 3.83-1.113.974-2.457 1.461-4.03 1.461-2.698 0-4.608-1.292-5.73-3.879l3.17-1.444c.44.757.776 1.239 1.008 1.444.451.412.99.617 1.618.617 1.255 0 1.882-.563 1.882-1.688 0-.65-.484-1.255-1.453-1.818a52.723 52.723 0 0 0-1.123-.535 85.922 85.922 0 0 1-1.14-.536c-1.079-.52-1.838-1.038-2.278-1.558-.562-.66-.842-1.51-.842-2.548 0-1.375.478-2.51 1.436-3.408.98-.898 2.17-1.347 3.567-1.347 2.059 0 3.59 1.044 4.591 3.132M247.803 15.326l-3.071 1.606c-.486-.974-1.085-1.46-1.801-1.46-.34 0-.633.111-.875.333a1.1 1.1 0 0 0-.364.852c0 .605.716 1.206 2.148 1.801 1.97.834 3.297 1.602 3.98 2.305.683.704 1.023 1.65 1.023 2.84 0 1.526-.572 2.803-1.717 3.83-1.112.974-2.456 1.461-4.03 1.461-2.697 0-4.607-1.292-5.73-3.879l3.17-1.444c.441.757.778 1.239 1.008 1.444.452.412.991.617 1.618.617 1.255 0 1.883-.563 1.883-1.688 0-.65-.484-1.255-1.453-1.818-.374-.184-.75-.362-1.123-.535a85.928 85.928 0 0 1-1.14-.536c-1.079-.52-1.838-1.038-2.278-1.558-.562-.66-.843-1.51-.843-2.548 0-1.375.48-2.51 1.437-3.408.98-.898 2.168-1.347 3.567-1.347 2.058 0 3.59 1.044 4.591 3.132"/>
    </g>
</svg>
