<svg xmlns="http://www.w3.org/2000/svg" width="20" height="20" viewBox="0 0 20 20">
    <g fill="none" fill-rule="evenodd">
        <path d="M-2-2h24v24H-2z"/>
        <path fill="#1DA1F2" d="M15.708 7.33c-.064 4.619-3.017 7.783-7.425 7.982-1.818.082-3.137-.503-4.283-1.232 1.344.215 3.009-.322 3.902-1.086-1.318-.129-2.096-.799-2.464-1.877.38.067.781.049 1.144-.029-1.188-.399-2.037-1.133-2.083-2.672.335.152.683.295 1.144.322-.891-.506-1.546-2.355-.793-3.58 1.321 1.449 2.91 2.629 5.517 2.789-.654-2.797 3.058-4.315 4.608-2.435.657-.127 1.189-.375 1.702-.647-.21.651-.618 1.104-1.116 1.469.544-.074 1.029-.207 1.439-.411-.252.53-.813 1.007-1.292 1.407zM18 0H2C.896 0 .01.895.01 2L0 18a2 2 0 0 0 2 2h16a2 2 0 0 0 2-2V2a2 2 0 0 0-2-2z"/>
    </g>
</svg>
